<svg width="512" height="512" viewBox="0 0 512 512" xmlns="http://www.w3.org/2000/svg">
  <defs>
    <linearGradient id="bg" x1="64" y1="48" x2="448" y2="464" gradientUnits="userSpaceOnUse">
      <stop offset="0" stop-color="#1E293B"/>
      <stop offset="1" stop-color="#020617"/>
    </linearGradient>
    <linearGradient id="shield" x1="146" y1="84" x2="366" y2="404" gradientUnits="userSpaceOnUse">
      <stop offset="0" stop-color="#38BDF8"/>
      <stop offset="1" stop-color="#2563EB"/>
    </linearGradient>
    <filter id="shadow" x="-20%" y="-20%" width="140%" height="140%">
      <feDropShadow dx="0" dy="14" stdDeviation="18" flood-color="#000000" flood-opacity="0.38"/>
    </filter>
  </defs>

  <rect width="512" height="512" rx="112" fill="url(#bg)"/>

  <path d="M256 62L382 110V219C382 310 331 387 256 425C181 387 130 310 130 219V110L256 62Z" fill="url(#shield)" filter="url(#shadow)"/>
  <path d="M256 92L354 130V222C354 294 315 356 256 389C197 356 158 294 158 222V130L256 92Z" fill="#0F172A" opacity="0.18"/>

  <rect x="196" y="128" width="120" height="224" rx="30" fill="#F8FAFC"/>
  <rect x="211" y="154" width="90" height="158" rx="14" fill="#0F172A"/>
  <circle cx="256" cy="332" r="9" fill="#CBD5E1"/>
  <rect x="238" y="140" width="36" height="5" rx="2.5" fill="#CBD5E1"/>

  <path d="M256 198C278 198 296 216 296 238C296 244 295 249 292 254" fill="none" stroke="#60A5FA" stroke-width="16" stroke-linecap="round"/>
  <path d="M292 254L321 249L307 224" fill="none" stroke="#60A5FA" stroke-width="16" stroke-linecap="round" stroke-linejoin="round"/>
  <path d="M256 278C234 278 216 260 216 238C216 232 217 227 220 222" fill="none" stroke="#60A5FA" stroke-width="16" stroke-linecap="round"/>
  <path d="M220 222L191 227L205 252" fill="none" stroke="#60A5FA" stroke-width="16" stroke-linecap="round" stroke-linejoin="round"/>

  <circle cx="344" cy="344" r="76" fill="#EF4444" stroke="#FEE2E2" stroke-width="18" filter="url(#shadow)"/>
  <path d="M300 388L388 300" stroke="#FFFFFF" stroke-width="24" stroke-linecap="round"/>
</svg>
